<?xml version="1.0" encoding="utf-8"?>
<!-- Generator: Adobe Illustrator 17.0.0, SVG Export Plug-In . SVG Version: 6.00 Build 0)  -->
<!DOCTYPE svg PUBLIC "-//W3C//DTD SVG 1.1//EN" "http://www.w3.org/Graphics/SVG/1.1/DTD/svg11.dtd">
<svg version="1.1" id="Ebene_1" xmlns="http://www.w3.org/2000/svg" xmlns:xlink="http://www.w3.org/1999/xlink" x="0px" y="0px"
	 width="960px" height="560px" viewBox="0 0 960 560" enable-background="new 0 0 960 560" xml:space="preserve">
<path d="M372.231,279.649l0.807-2.428h11.27l0.931-2.428h-11.393l0.807-2.428h11.517l0.931-2.428h-11.641l0.807-2.428h11.764
	l0.931-2.428h-11.887l0.828-2.493h12.014l1.236-3.225h-15.993l-8.888,23.384c-1.725,4.516-3.623,6.372-6.613,6.372
	c-2.405,0-3.542-1.423-2.965-3.712c0.172-0.681,0.614-1.917,1.073-3.217l0.966-2.54h-10.882l0.807-2.428h10.998l0.924-2.428h-11.115
	l0.807-2.428h11.232l0.924-2.428h-11.348l0.807-2.428h11.465l0.924-2.428h-11.581l0.829-2.493h11.701l1.227-3.225h-15.929
	l-9.047,23.755c-0.395,1.052-0.709,2.042-1.037,3.341c-1.217,4.825-0.565,8.166,2.16,10.764c3.102,2.907,7.913,4.453,14.155,4.453
	c6.176,0,11.377-1.546,15.909-4.825c4.678-3.34,6.486-6.124,9.744-14.661l0.974-2.54H372.231z"/>
</svg>
